<svg xmlns="http://www.w3.org/2000/svg" viewBox="0 0 64 64" fill="none">
  <defs>
    <filter id="softGlow" x="-45%" y="-45%" width="190%" height="190%">
      <feGaussianBlur stdDeviation="1.25" result="blur"/>
      <feColorMatrix in="blur" type="matrix" values="1 0 0 0 1  0 .40 0 0 .28  0 0 0 0 .05  0 0 0 .55 0" result="glow"/>
      <feMerge>
        <feMergeNode in="glow"/>
        <feMergeNode in="SourceGraphic"/>
      </feMerge>
    </filter>
    <linearGradient id="orange" x1="12" y1="10" x2="52" y2="54" gradientUnits="userSpaceOnUse">
      <stop stop-color="#ffb14a"/>
      <stop offset=".52" stop-color="#ff7426"/>
      <stop offset="1" stop-color="#f25a0b"/>
    </linearGradient>
    <linearGradient id="whiteLine" x1="14" y1="10" x2="50" y2="54" gradientUnits="userSpaceOnUse">
      <stop stop-color="#ffffff"/>
      <stop offset="1" stop-color="#d9dee8"/>
    </linearGradient>
  </defs>
  <circle cx="32" cy="32" r="29" fill="#171c22" stroke="rgba(255,116,38,.45)" stroke-width="1.6"/>
  <g filter="url(#softGlow)" stroke-linecap="round" stroke-linejoin="round">
    
<path d="M17 25h27c3.5 0 6.5 2.8 6.5 6.3v13.2c0 3.6-2.9 6.5-6.5 6.5H18.5c-3.6 0-6.5-2.9-6.5-6.5V30.5c0-3 2.2-5.5 5-5.5z" stroke="url(#whiteLine)" stroke-width="3"/>
<path d="M18 25l18-6.2c3.4-1.1 6.6.8 7.5 4.2l.5 2" stroke="url(#whiteLine)" stroke-width="3"/>
<path d="M39.5 34.5h10.2v9.2H39.5c-2.7 0-4.7-1.9-4.7-4.6s2-4.6 4.7-4.6z" stroke="url(#orange)" stroke-width="3"/>
<path d="M41.7 39.1h.1" stroke="url(#orange)" stroke-width="4"/>
<circle cx="46.5" cy="47.5" r="9.2" fill="#ff7426" stroke="#ff9a3d" stroke-width="1.5"/>
<path d="M42.2 49.8l6.5-6.5M48.7 43.3v6M48.7 43.3h-6" stroke="#fff" stroke-width="2.6"/>

  </g>
</svg>