<svg xmlns="http://www.w3.org/2000/svg" width="64" height="64" viewBox="0 0 24 24" fill="none" stroke="currentColor" stroke-width="1.8" stroke-linecap="round" stroke-linejoin="round">
  <title>Voucher</title>
  <path d="M4.4 8.2 8.2 4.4a1.5 1.5 0 0 1 1.1-.4h8.2A2.5 2.5 0 0 1 20 6.5v8.2a1.5 1.5 0 0 1-.4 1.1l-3.8 3.8a2.1 2.1 0 0 1-3 0l-8.4-8.4a2.1 2.1 0 0 1 0-3Z"/>
  <circle cx="15.6" cy="8.4" r="1.2"/>
  <path d="M8.8 13.6 13.6 8.8"/>
  <path d="M9.1 9.2h.01"/>
  <path d="M13.3 13.4h.01"/>
</svg>
