<svg xmlns="http://www.w3.org/2000/svg" viewBox="0 0 64 64" fill="none">
  <defs>
    <filter id="glow" x="-60%" y="-60%" width="220%" height="220%">
      <feGaussianBlur stdDeviation="2.2" result="blur"/>
      <feColorMatrix in="blur" type="matrix" values="1 0 0 0 1  0 .45 0 0 .35  0 0 0 0 .08  0 0 0 .8 0" result="glow"/>
      <feMerge><feMergeNode in="glow"/><feMergeNode in="SourceGraphic"/></feMerge>
    </filter>
    <linearGradient id="orange" x1="10" y1="10" x2="54" y2="54" gradientUnits="userSpaceOnUse">
      <stop stop-color="#ffb14a"/>
      <stop offset=".48" stop-color="#ff7426"/>
      <stop offset="1" stop-color="#f25a0b"/>
    </linearGradient>
  </defs>
  <circle cx="32" cy="32" r="29" fill="#171c22" stroke="rgba(255,116,38,.62)" stroke-width="2"/>
  <g filter="url(#glow)" stroke="url(#orange)" stroke-width="3.5" stroke-linecap="round" stroke-linejoin="round">
    <path d="M19 30c0-7 6-13 14-13 6 0 11 3 14 8"/>
<path d="M17 32h32c3 0 5 2 5 5v8c0 5-4 9-9 9H24c-5 0-9-4-9-9v-8c0-2 1-4 2-5z"/>
<path d="M25 30v-5h6v5"/>
<path d="M42 38h.1"/>
<path d="M23 54v4M45 54v4"/>
  </g>
</svg>