<svg xmlns="http://www.w3.org/2000/svg" viewBox="0 0 64 64" fill="none">
  <defs>
    <filter id="glow" x="-60%" y="-60%" width="220%" height="220%">
      <feGaussianBlur stdDeviation="2.2" result="blur"/>
      <feColorMatrix in="blur" type="matrix" values="1 0 0 0 1  0 .45 0 0 .35  0 0 0 0 .08  0 0 0 .8 0" result="glow"/>
      <feMerge><feMergeNode in="glow"/><feMergeNode in="SourceGraphic"/></feMerge>
    </filter>
    <linearGradient id="orange" x1="10" y1="10" x2="54" y2="54" gradientUnits="userSpaceOnUse">
      <stop stop-color="#ffb14a"/>
      <stop offset=".48" stop-color="#ff7426"/>
      <stop offset="1" stop-color="#f25a0b"/>
    </linearGradient>
  </defs>
  <circle cx="32" cy="32" r="29" fill="#171c22" stroke="rgba(255,116,38,.62)" stroke-width="2"/>
  <g filter="url(#glow)" stroke="url(#orange)" stroke-width="3.5" stroke-linecap="round" stroke-linejoin="round">
    <path d="M18 24h27v15c0 7-5 12-12 12h-3c-7 0-12-5-12-12V24z"/>
<path d="M45 29h3c4 0 7 3 7 7s-3 7-7 7h-3"/>
<path d="M17 52h31"/>
<path d="M25 16c-2 2-2 4 0 6M33 16c-2 2-2 4 0 6M41 16c-2 2-2 4 0 6"/>
  </g>
</svg>