<svg xmlns="http://www.w3.org/2000/svg" viewBox="0 0 64 64" fill="none">
  <defs>
    <filter id="glow" x="-60%" y="-60%" width="220%" height="220%">
      <feGaussianBlur stdDeviation="2.2" result="blur"/>
      <feColorMatrix in="blur" type="matrix" values="1 0 0 0 1  0 .45 0 0 .35  0 0 0 0 .08  0 0 0 .8 0" result="glow"/>
      <feMerge><feMergeNode in="glow"/><feMergeNode in="SourceGraphic"/></feMerge>
    </filter>
    <linearGradient id="orange" x1="10" y1="10" x2="54" y2="54" gradientUnits="userSpaceOnUse">
      <stop stop-color="#ffb14a"/>
      <stop offset=".48" stop-color="#ff7426"/>
      <stop offset="1" stop-color="#f25a0b"/>
    </linearGradient>
  </defs>
  <circle cx="32" cy="32" r="29" fill="#171c22" stroke="rgba(255,116,38,.62)" stroke-width="2"/>
  <g filter="url(#glow)" stroke="url(#orange)" stroke-width="3.5" stroke-linecap="round" stroke-linejoin="round">
    <path d="M18 23h28c4 0 7 3 7 7v15c0 4-3 7-7 7H18c-4 0-7-3-7-7V24c0-4 3-7 7-7h25"/>
<path d="M18 17l22-5c4-1 7 1 8 5l1 4"/>
<path d="M42 36h11v10H42c-3 0-5-2-5-5s2-5 5-5z"/>
<path d="M44.5 41h.1"/>
  </g>
</svg>